<?xml version="1.0" encoding="UTF-8"?>
<!DOCTYPE svg PUBLIC "-//W3C//DTD SVG 1.1//EN" "http://www.w3.org/Graphics/SVG/1.1/DTD/svg11.dtd">
<svg xmlns="http://www.w3.org/2000/svg" version="1.1" width="746px" height="131px" style="shape-rendering:geometricPrecision; text-rendering:geometricPrecision; image-rendering:optimizeQuality; fill-rule:evenodd; clip-rule:evenodd" xmlns:xlink="http://www.w3.org/1999/xlink">
<g><path style="opacity:1" fill="#641d56" d="M 39.5,1.5 C 44.8333,1.5 50.1667,1.5 55.5,1.5C 58.3583,2.16596 61.3583,2.83262 64.5,3.5C 63.3595,4.42549 63.3595,5.25883 64.5,6C 61.1498,7.48632 57.8165,8.65298 54.5,9.5C 48.8333,9.5 43.1667,9.5 37.5,9.5C 39.2143,8.26162 41.2143,7.59495 43.5,7.5C 44.067,4.08858 42.7337,2.08858 39.5,1.5 Z"/></g>
<g><path style="opacity:1" fill="#882666" d="M 55.5,1.5 C 64.8333,1.5 74.1667,1.5 83.5,1.5C 84.9516,2.30192 86.6183,2.80192 88.5,3C 88.8333,4 89.1667,5 89.5,6C 85.8865,7.5911 82.2198,8.75776 78.5,9.5C 70.5,9.5 62.5,9.5 54.5,9.5C 57.8165,8.65298 61.1498,7.48632 64.5,6C 63.3595,5.25883 63.3595,4.42549 64.5,3.5C 61.3583,2.83262 58.3583,2.16596 55.5,1.5 Z"/></g>
<g><path style="opacity:1" fill="#381143" d="M 39.5,1.5 C 42.7337,2.08858 44.067,4.08858 43.5,7.5C 41.2143,7.59495 39.2143,8.26162 37.5,9.5C 31.8236,9.33391 26.1569,9.50058 20.5,10C 18.249,10.7475 16.9156,12.2475 16.5,14.5C 15.5036,30.6581 15.1702,46.9915 15.5,63.5C 13.5337,64.2545 13.2004,65.4212 14.5,67C 13.856,69.74 12.6893,72.24 11,74.5C 9.95701,72.1671 9.12368,69.8337 8.5,67.5C 8.0366,47.7656 8.5366,28.099 10,8.5C 12.3649,5.13094 15.5315,2.96428 19.5,2C 26.1583,1.50042 32.825,1.33375 39.5,1.5 Z"/></g>
<g><path style="opacity:1" fill="#6e1f5b" d="M 37.5,16.5 C 40.9619,15.5184 44.6286,15.185 48.5,15.5C 54.3193,16.3276 60.3193,16.8276 66.5,17C 66.5,18.3333 66.5,19.6667 66.5,21C 63.8958,21.3903 61.5625,22.2237 59.5,23.5C 52.5,23.5 45.5,23.5 38.5,23.5C 41.4635,22.7422 44.1302,21.2422 46.5,19C 43.8934,16.8951 40.8934,16.0617 37.5,16.5 Z"/></g>
<g><path style="opacity:0.919" fill="#000000" d="M 176.5,23.5 C 184.507,23.3336 192.507,23.5003 200.5,24C 215.123,27.8147 219.957,36.9814 215,51.5C 211.195,58.9701 205.695,64.8034 198.5,69C 203.899,81.8998 212.899,91.3998 225.5,97.5C 227.246,104.604 224.413,108.604 217,109.5C 209.421,107.609 203.087,103.609 198,97.5C 189.23,86.9585 183.396,74.9585 180.5,61.5C 195.01,60.844 201.176,53.5107 199,39.5C 192.689,34.0852 185.689,33.0852 178,36.5C 175.93,60.2327 176.43,83.8994 179.5,107.5C 174.412,108.867 169.412,108.7 164.5,107C 161.017,104.394 159.35,100.894 159.5,96.5C 163.39,74.4903 163.39,52.4903 159.5,30.5C 159.709,29.0055 160.376,27.8388 161.5,27C 166.646,25.8752 171.646,24.7085 176.5,23.5 Z"/></g>
<g><path style="opacity:0.916" fill="#000000" d="M 357.5,23.5 C 361.61,23.3958 365.11,24.7292 368,27.5C 374.954,43.7034 382.287,59.7034 390,75.5C 399.469,59.4281 406.802,42.4281 412,24.5C 416.413,23.3676 420.913,23.2009 425.5,24C 427.002,24.5831 428.335,25.4164 429.5,26.5C 429.009,44.4742 429.509,62.4742 431,80.5C 431.804,89.3008 433.304,97.9674 435.5,106.5C 430.463,109.726 425.13,110.226 419.5,108C 417.667,107.5 416.5,106.333 416,104.5C 415.421,102.351 414.921,100.185 414.5,98C 415.666,82.8535 416.166,67.6868 416,52.5C 410.495,60.8399 405.495,69.5065 401,78.5C 398.386,83.5074 396.886,88.8407 396.5,94.5C 388.252,97.5341 382.085,95.2008 378,87.5C 373,75.5 368,63.5 363,51.5C 360.384,69.7969 359.884,88.1303 361.5,106.5C 356.032,109.5 350.865,109.166 346,105.5C 345.399,103.863 344.899,102.197 344.5,100.5C 347.109,82.7381 349.109,64.9047 350.5,47C 350.282,40.1001 349.615,33.2667 348.5,26.5C 351.505,25.1823 354.505,24.1823 357.5,23.5 Z"/></g>
<g><path style="opacity:1" fill="#a12e71" d="M 83.5,1.5 C 93.0118,0.398324 98.6785,4.39832 100.5,13.5C 100.154,21.0926 100.154,28.5926 100.5,36C 99.5838,36.3742 98.7504,36.8742 98,37.5C 96.1583,33.4062 93.3249,31.4062 89.5,31.5C 88.8333,31.1667 88.1667,30.8333 87.5,30.5C 86.8826,30.6107 86.3826,30.944 86,31.5C 85.1473,35.4686 84.4807,39.4686 84,43.5C 82.6003,42.252 81.1003,41.252 79.5,40.5C 79.5,34.8333 79.5,29.1667 79.5,23.5C 72.8333,23.5 66.1667,23.5 59.5,23.5C 61.5625,22.2237 63.8958,21.3903 66.5,21C 66.5,19.6667 66.5,18.3333 66.5,17C 60.3193,16.8276 54.3193,16.3276 48.5,15.5C 60.5046,15.3335 72.5046,15.5001 84.5,16C 87.6301,18.128 90.4634,20.628 93,23.5C 95.6189,11.3662 90.7856,6.69956 78.5,9.5C 82.2198,8.75776 85.8865,7.5911 89.5,6C 89.1667,5 88.8333,4 88.5,3C 86.6183,2.80192 84.9516,2.30192 83.5,1.5 Z"/></g>
<g><path style="opacity:0.638" fill="#311042" d="M 55.5,33.5 C 55.5,35.5 54.5,36.5 52.5,36.5C 47.9443,36.1009 45.2776,38.1009 44.5,42.5C 43.5592,44.0495 42.8925,45.7162 42.5,47.5C 39.2753,41.9521 40.2753,37.1188 45.5,33C 48.9236,32.2534 52.2569,32.42 55.5,33.5 Z"/></g>
<g><path style="opacity:1" fill="#561953" d="M 55.5,33.5 C 62.364,39.6987 62.0307,45.532 54.5,51C 51.5,51.6667 48.5,51.6667 45.5,51C 44.2899,49.9609 43.2899,48.7942 42.5,47.5C 42.8925,45.7162 43.5592,44.0495 44.5,42.5C 48.4916,49.2238 52.1583,49.0571 55.5,42C 55.1373,39.8077 54.1373,37.9744 52.5,36.5C 54.5,36.5 55.5,35.5 55.5,33.5 Z"/></g>
<g><path style="opacity:1" fill="#d13b89" d="M 104.5,35.5 C 108.464,38.9629 112.298,42.6295 116,46.5C 116.667,72.1667 116.667,97.8333 116,123.5C 114.306,126.358 112.139,128.691 109.5,130.5C 90.1667,130.5 70.8333,130.5 51.5,130.5C 53.0423,129.859 54.3757,128.859 55.5,127.5C 53.99,125.311 51.99,123.977 49.5,123.5C 68.1696,123.667 86.8363,123.5 105.5,123C 106.416,122.626 107.25,122.126 108,121.5C 108.5,98.8358 108.667,76.1691 108.5,53.5C 102.642,53.8222 96.9753,53.4889 91.5,52.5C 95.8461,52.6657 100.179,52.499 104.5,52C 103.66,50.3335 104.16,50.1669 106,51.5C 107.487,50.7471 107.654,49.9138 106.5,49C 107.743,47.8455 108.743,46.5122 109.5,45C 108.267,41.7655 106.267,39.0989 103.5,37C 104.056,36.6174 104.389,36.1174 104.5,35.5 Z"/></g>
<g><path style="opacity:1" fill="#531b4f" d="M 37.5,16.5 C 40.8934,16.0617 43.8934,16.8951 46.5,19C 44.1302,21.2422 41.4635,22.7422 38.5,23.5C 35.3252,23.8399 33.1585,25.5066 32,28.5C 31.5007,33.4889 31.3341,38.4889 31.5,43.5C 30.6649,50.0793 29.4982,56.746 28,63.5C 27.5581,61.3215 26.5581,60.6548 25,61.5C 24.8227,57.6437 24.3227,53.977 23.5,50.5C 23.1241,41.7646 23.6241,33.0979 25,24.5C 27.2719,18.9437 31.4386,16.277 37.5,16.5 Z"/></g>
<g><path style="opacity:0.987" fill="#bc337e" d="M 100.5,13.5 C 101.328,19.6534 101.828,25.9867 102,32.5C 103.045,33.3734 103.878,34.3734 104.5,35.5C 104.389,36.1174 104.056,36.6174 103.5,37C 106.267,39.0989 108.267,41.7655 109.5,45C 108.743,46.5122 107.743,47.8455 106.5,49C 107.654,49.9138 107.487,50.7471 106,51.5C 104.16,50.1669 103.66,50.3335 104.5,52C 100.179,52.499 95.8461,52.6657 91.5,52.5C 84.5517,51.5518 80.5517,47.5518 79.5,40.5C 81.1003,41.252 82.6003,42.252 84,43.5C 84.4807,39.4686 85.1473,35.4686 86,31.5C 86.3826,30.944 86.8826,30.6107 87.5,30.5C 84.8301,43.3306 89.8301,48.164 102.5,45C 97.9633,40.6312 93.6299,36.1312 89.5,31.5C 93.3249,31.4062 96.1583,33.4062 98,37.5C 98.7504,36.8742 99.5838,36.3742 100.5,36C 100.154,28.5926 100.154,21.0926 100.5,13.5 Z M 87.5,30.5 C 88.1667,30.8333 88.8333,31.1667 89.5,31.5C 93.6299,36.1312 97.9633,40.6312 102.5,45C 89.8301,48.164 84.8301,43.3306 87.5,30.5 Z"/></g>
<g><path style="opacity:0.901" fill="#000000" d="M 252.5,46.5 C 261.624,45.0513 269.791,47.0513 277,52.5C 284.378,67.7171 279.878,77.2171 263.5,81C 257.5,82.5327 251.5,82.6993 245.5,81.5C 244.992,85.487 245.492,89.487 247,93.5C 247.948,95.5701 249.448,97.0701 251.5,98C 261.748,100.038 267.748,95.871 269.5,85.5C 275.213,84.0275 278.879,86.1942 280.5,92C 278.131,101.366 272.131,107.033 262.5,109C 253.646,110.597 245.313,109.264 237.5,105C 230.224,95.726 227.724,85.226 230,73.5C 231.972,59.7095 239.472,50.7095 252.5,46.5 Z M 251.5,57.5 C 255.637,57.1463 259.637,57.6463 263.5,59C 266.152,61.7807 266.819,64.9474 265.5,68.5C 258.883,72.3734 251.883,73.2067 244.5,71C 245.239,67.5129 246.073,64.0129 247,60.5C 248.652,59.6006 250.152,58.6006 251.5,57.5 Z"/></g>
<g><path style="opacity:0.899" fill="#000000" d="M 309.5,46.5 C 317.185,45.7357 324.519,46.9024 331.5,50C 335.671,53.8543 336.504,58.3543 334,63.5C 330.518,66.8825 326.351,68.2159 321.5,67.5C 322.544,62.8187 320.877,59.652 316.5,58C 312.739,57.2617 309.072,57.5951 305.5,59C 302.833,61.6667 302.833,64.3333 305.5,67C 311.952,69.9285 318.618,72.2618 325.5,74C 338.152,80.2724 340.485,89.2724 332.5,101C 320.994,109.918 308.327,111.918 294.5,107C 286.76,101.644 285.76,95.3109 291.5,88C 294.608,86.2415 297.941,85.4081 301.5,85.5C 301.149,95.9773 306.149,100.144 316.5,98C 323.608,95.1222 324.275,91.1222 318.5,86C 311.56,83.5143 304.56,81.1809 297.5,79C 289.963,74.9682 287.463,68.8015 290,60.5C 291,58.8333 292,57.1667 293,55.5C 298.076,51.5485 303.576,48.5485 309.5,46.5 Z"/></g>
<g><path style="opacity:0.904" fill="#000000" d="M 601.5,46.5 C 609.426,45.4977 616.759,46.9977 623.5,51C 628.219,58.252 627.219,64.5854 620.5,70C 617.854,70.4974 615.187,70.6641 612.5,70.5C 612.081,58.0769 606.414,54.9102 595.5,61C 591.832,69.7922 590.666,78.9589 592,88.5C 594.119,96.6167 599.286,99.7834 607.5,98C 613.614,95.6132 616.614,91.1132 616.5,84.5C 627.777,85.0711 630.61,90.4044 625,100.5C 616.151,108.999 605.651,111.833 593.5,109C 581.301,104.776 575.301,96.1096 575.5,83C 575.839,70.6586 580.506,60.3253 589.5,52C 593.284,49.4713 597.284,47.638 601.5,46.5 Z"/></g>
<g><path style="opacity:0.902" fill="#000000" d="M 656.5,46.5 C 666.493,44.7838 674.993,47.4505 682,54.5C 687.283,68.7631 682.45,77.5964 667.5,81C 661.492,82.4373 655.492,82.6039 649.5,81.5C 647.915,88.3391 649.915,93.8391 655.5,98C 666.043,99.6227 671.709,95.1227 672.5,84.5C 683.094,84.616 686.261,89.616 682,99.5C 672.004,109.426 660.171,112.259 646.5,108C 641.667,105.833 638.167,102.333 636,97.5C 632.667,86.5 632.667,75.5 636,64.5C 640.264,55.3924 647.097,49.3924 656.5,46.5 Z M 654.5,57.5 C 658.637,57.1463 662.637,57.6463 666.5,59C 669.562,61.9566 670.228,65.4566 668.5,69.5C 662.003,72.1401 655.337,72.8068 648.5,71.5C 648.171,65.6535 650.171,60.9868 654.5,57.5 Z"/></g>
<g><path style="opacity:0.903" fill="#000000" d="M 464.5,47.5 C 476.924,46.4483 488.924,48.115 500.5,52.5C 496.523,70.5041 496.523,88.5041 500.5,106.5C 485.722,111.569 479.555,106.235 482,90.5C 478.474,99.359 472.308,105.526 463.5,109C 455.495,110.08 449.328,107.246 445,100.5C 438.122,81.2281 442.288,64.7281 457.5,51C 459.925,49.7874 462.259,48.6207 464.5,47.5 Z M 467.5,58.5 C 472.87,58.3921 478.203,58.7255 483.5,59.5C 480.391,72.884 474.724,85.0506 466.5,96C 464.105,98.1451 461.938,97.9784 460,95.5C 456.497,84.3868 456.83,73.3868 461,62.5C 463.013,60.7518 465.18,59.4185 467.5,58.5 Z"/></g>
<g><path style="opacity:0.907" fill="#000000" d="M 515.5,47.5 C 526.243,47.4173 530.743,52.7507 529,63.5C 533.677,56.4837 539.844,51.317 547.5,48C 551.167,47.3333 554.833,47.3333 558.5,48C 561.945,49.3879 564.111,51.8879 565,55.5C 565.278,64.6648 565.112,73.8315 564.5,83C 564.322,91.3514 565.156,99.5181 567,107.5C 556.218,112.023 550.052,108.523 548.5,97C 550.07,85.5441 550.903,74.0441 551,62.5C 548.847,60.5561 546.347,60.0561 543.5,61C 533.781,68.9411 528.114,79.1078 526.5,91.5C 526.951,96.8694 527.617,102.203 528.5,107.5C 523.445,108.994 518.445,108.827 513.5,107C 512.299,106.097 511.465,104.931 511,103.5C 511.165,93.1699 511.665,82.8365 512.5,72.5C 512.742,64.7947 511.742,57.2947 509.5,50C 511.502,48.9808 513.502,48.1475 515.5,47.5 Z"/></g>
<g><path style="opacity:0.9" fill="#000000" d="M 699.5,47.5 C 706.719,47.0952 710.719,50.4285 711.5,57.5C 710.828,59.8322 710.661,62.1656 711,64.5C 714.5,57 720,51.5 727.5,48C 739.446,46.2826 744.279,51.4493 742,63.5C 738.608,69.4667 733.774,70.9667 727.5,68C 728.833,62.3333 726.833,60.6667 721.5,63C 711.285,76.3609 708.285,91.1942 712.5,107.5C 708.204,108.463 703.871,108.629 699.5,108C 697.333,107.167 695.833,105.667 695,103.5C 695.132,93.0015 695.632,82.5015 696.5,72C 696.688,64.4657 695.688,57.1323 693.5,50C 695.502,48.9808 697.502,48.1475 699.5,47.5 Z"/></g>
<g><path style="opacity:1" fill="#611c58" d="M 61.5,59.5 C 62.8062,60.4674 63.4729,61.8007 63.5,63.5C 60.9407,63.1984 58.6074,63.5318 56.5,64.5C 51.4889,64.6659 46.4889,64.4993 41.5,64C 40.4829,62.9505 40.3162,61.7839 41,60.5C 47.7445,59.5212 54.5778,59.1878 61.5,59.5 Z"/></g>
<g><path style="opacity:1" fill="#b6327f" d="M 61.5,59.5 C 74.1711,59.3334 86.8377,59.5001 99.5,60C 100.517,61.0495 100.684,62.2161 100,63.5C 85.5785,64.4904 71.0785,64.8237 56.5,64.5C 58.6074,63.5318 60.9407,63.1984 63.5,63.5C 63.4729,61.8007 62.8062,60.4674 61.5,59.5 Z"/></g>
<g><path style="opacity:1" fill="#6f205d" d="M 63.5,70.5 C 64.0906,71.1515 64.7573,71.8182 65.5,72.5C 64.0508,73.1719 62.7175,73.8386 61.5,74.5C 54.5,74.5 47.5,74.5 40.5,74.5C 40.33,73.1779 40.6634,72.0113 41.5,71C 48.8258,70.5003 56.1591,70.3337 63.5,70.5 Z"/></g>
<g><path style="opacity:0.979" fill="#bf3480" d="M 63.5,70.5 C 75.8333,70.5 88.1667,70.5 100.5,70.5C 100.5,71.8333 100.5,73.1667 100.5,74.5C 87.5,74.5 74.5,74.5 61.5,74.5C 62.7175,73.8386 64.0508,73.1719 65.5,72.5C 64.7573,71.8182 64.0906,71.1515 63.5,70.5 Z"/></g>
<g><path style="opacity:1" fill="#822566" d="M 74.5,80.5 C 74.9528,81.4584 75.6195,82.2917 76.5,83C 76.1667,83.3333 75.8333,83.6667 75.5,84C 68.9867,84.1721 62.6534,84.6721 56.5,85.5C 51.8215,85.6658 47.1548,85.4992 42.5,85C 40.4078,84.0475 40.0745,82.7141 41.5,81C 52.495,80.5002 63.495,80.3335 74.5,80.5 Z"/></g>
<g><path style="opacity:1" fill="#d03a8d" d="M 74.5,80.5 C 79.1785,80.3342 83.8452,80.5008 88.5,81C 89.727,82.5874 89.3937,83.9207 87.5,85C 77.172,85.4998 66.8387,85.6665 56.5,85.5C 62.6534,84.6721 68.9867,84.1721 75.5,84C 75.8333,83.6667 76.1667,83.3333 76.5,83C 75.6195,82.2917 74.9528,81.4584 74.5,80.5 Z"/></g>
<g><path style="opacity:1" fill="#55194f" d="M 15.5,63.5 C 15.4214,78.7783 15.4214,93.945 15.5,109C 14.8742,109.75 14.3742,110.584 14,111.5C 12.8545,110.316 11.6879,110.316 10.5,111.5C 10.0133,110.527 9.51328,109.527 9,108.5C 8.5001,94.8374 8.33343,81.1707 8.5,67.5C 9.12368,69.8337 9.95701,72.1671 11,74.5C 12.6893,72.24 13.856,69.74 14.5,67C 13.2004,65.4212 13.5337,64.2545 15.5,63.5 Z"/></g>
<g><path style="opacity:1" fill="#742161" d="M 16.5,14.5 C 16.3334,45.1685 16.5,75.8351 17,106.5C 18.7342,108.451 20.9009,109.451 23.5,109.5C 23.5,89.8333 23.5,70.1667 23.5,50.5C 24.3227,53.977 24.8227,57.6437 25,61.5C 26.5581,60.6548 27.5581,61.3215 28,63.5C 29.4982,56.746 30.6649,50.0793 31.5,43.5C 31.5,66.5 31.5,89.5 31.5,112.5C 30.2117,115.7 30.2117,119.033 31.5,122.5C 30.3115,124.262 28.6449,125.262 26.5,125.5C 24.7475,122.854 23.7475,119.854 23.5,116.5C 18.1181,117.301 13.7848,115.634 10.5,111.5C 11.6879,110.316 12.8545,110.316 14,111.5C 14.3742,110.584 14.8742,109.75 15.5,109C 15.4214,93.945 15.4214,78.7783 15.5,63.5C 15.1702,46.9915 15.5036,30.6581 16.5,14.5 Z"/></g>
<g><path style="opacity:1" fill="#b1307a" d="M 54.5,97.5 C 61.1667,97.5 67.8333,97.5 74.5,97.5C 76.4467,98.1504 78.1134,99.317 79.5,101C 72.3213,101.171 65.3213,101.671 58.5,102.5C 52.642,102.822 46.9753,102.489 41.5,101.5C 46.8746,101.828 52.2079,101.495 57.5,100.5C 56.6602,99.265 55.6602,98.265 54.5,97.5 Z"/></g>
<g><path style="opacity:1" fill="#de3d92" d="M 74.5,97.5 C 82.84,97.3336 91.1733,97.5003 99.5,98C 100.833,99.3333 100.833,100.667 99.5,102C 85.8374,102.5 72.1707,102.667 58.5,102.5C 65.3213,101.671 72.3213,101.171 79.5,101C 78.1134,99.317 76.4467,98.1504 74.5,97.5 Z"/></g>
<g><path style="opacity:1" fill="#762160" d="M 54.5,97.5 C 55.6602,98.265 56.6602,99.265 57.5,100.5C 52.2079,101.495 46.8746,101.828 41.5,101.5C 40.2089,100.458 40.2089,99.2917 41.5,98C 45.8206,97.501 50.1539,97.3343 54.5,97.5 Z"/></g>
<g><path style="opacity:1" fill="#dc3c90" d="M 62.5,107.5 C 73.1719,107.333 83.8385,107.5 94.5,108C 96.3348,108.928 96.6682,110.094 95.5,111.5C 85.5222,112.499 75.5222,112.832 65.5,112.5C 66.7653,111.521 68.0986,110.521 69.5,109.5C 67.0312,108.832 64.6979,108.165 62.5,107.5 Z"/></g>
<g><path style="opacity:1" fill="#90286c" d="M 62.5,107.5 C 64.6979,108.165 67.0312,108.832 69.5,109.5C 68.0986,110.521 66.7653,111.521 65.5,112.5C 57.2476,112.816 49.081,112.482 41,111.5C 40.3162,110.216 40.4829,109.049 41.5,108C 48.4921,107.5 55.4921,107.334 62.5,107.5 Z"/></g>
<g><path style="opacity:1" fill="#9b2b6f" d="M 31.5,112.5 C 30.8999,116.516 31.8999,120.016 34.5,123C 39.4889,123.499 44.4889,123.666 49.5,123.5C 51.99,123.977 53.99,125.311 55.5,127.5C 54.3757,128.859 53.0423,129.859 51.5,130.5C 44.8333,130.5 38.1667,130.5 31.5,130.5C 29.5273,129.194 27.8606,127.527 26.5,125.5C 28.6449,125.262 30.3115,124.262 31.5,122.5C 30.2117,119.033 30.2117,115.7 31.5,112.5 Z"/></g>
</svg>
